<svg width="259" height="259" viewBox="0 0 259 259" fill="none" xmlns="http://www.w3.org/2000/svg">
<path d="M181.326 68.5071C181.699 68.8928 182.145 69.2003 182.638 69.4117C183.131 69.6232 183.661 69.7343 184.197 69.7387C184.733 69.7431 185.265 69.6407 185.762 69.4374C186.258 69.234 186.709 68.9339 187.088 68.5545C187.467 68.1751 187.766 67.7239 187.969 67.2274C188.172 66.7309 188.274 66.199 188.269 65.6627C188.264 65.1264 188.153 64.5964 187.941 64.1037C187.729 63.611 187.421 63.1655 187.035 62.7931C186.269 62.0796 185.257 61.6912 184.21 61.7096C183.164 61.7281 182.165 62.152 181.425 62.892C180.685 63.6321 180.261 64.6305 180.243 65.6769C180.224 66.7233 180.613 67.7361 181.326 68.5018M193.6 81.2171C193.97 81.6139 194.416 81.9322 194.911 82.153C195.407 82.3738 195.941 82.4925 196.484 82.502C197.026 82.5116 197.565 82.4118 198.068 82.2087C198.571 82.0055 199.028 81.7032 199.411 81.3196C199.795 80.9361 200.097 80.4792 200.3 79.9762C200.503 79.4733 200.603 78.9346 200.594 78.3922C200.584 77.8499 200.465 77.315 200.245 76.8196C200.024 76.3241 199.706 75.8782 199.309 75.5084C198.543 74.7949 197.53 74.4065 196.484 74.4249C195.437 74.4434 194.439 74.8673 193.699 75.6074C192.959 76.3474 192.535 77.3458 192.517 78.3922C192.498 79.4387 192.886 80.4514 193.6 81.2171Z" fill="black"/>
<path fill-rule="evenodd" clip-rule="evenodd" d="M35.7595 222.013C38.0214 224.275 41.3066 225.298 44.5918 225.298C45.3458 225.298 46.1536 225.19 46.9615 225.083C48.5233 224.813 50.1928 224.275 52.0239 223.467C54.2858 222.444 56.9786 220.936 59.9946 218.889C64.68 215.82 70.0117 211.673 72.1659 209.518C74.2663 207.418 75.7743 205.533 76.9052 203.702C82.3985 196.647 83.8526 188.999 84.068 182.914C84.1757 182.968 84.3373 183.075 84.3373 183.075C85.2798 183.695 86.33 184.459 87.4071 185.24C88.6619 186.145 89.9599 187.088 91.177 187.868C97.6935 192.069 106.257 197.185 114.712 199.771C127.314 203.594 138.678 201.386 146.648 193.416C152.249 187.761 154.619 180.167 153.273 171.981C152.465 167.08 150.257 161.964 146.648 156.363C142.124 149.415 135.5 141.876 129.415 134.982L126.452 131.589C122.575 127.119 119.236 123.188 116.543 119.633C121.121 123.78 126.129 128.896 131.246 134.228L133.4 136.436C141.101 144.461 149.826 153.509 157.904 159.54C163.882 163.957 169.375 166.649 174.707 167.78C183.432 169.558 191.618 167.188 197.757 161.048C202.335 156.524 205.189 151.193 206.374 145.322C207.344 140.26 207.021 134.928 205.297 129.489C202.766 121.411 197.704 114.302 193.18 108.27L190.972 105.362L189.539 103.423C187.999 101.349 186.604 99.4751 185.532 97.8217L186.555 96.7985C188.386 97.4986 190.325 97.8756 192.21 97.9833C198.511 98.3064 204.328 95.6137 210.198 89.7434C211.06 88.8817 211.921 87.7507 213.052 86.135C213.86 84.9502 214.883 83.4423 215.907 81.7189C217.576 78.9184 220.107 74.5561 222.423 69.5475C224.954 64.1619 226.678 59.3688 227.486 55.2757C228.078 52.2598 228.24 49.567 227.97 47.0897C227.54 43.2121 225.978 39.8192 223.447 37.2879C220.592 34.4336 215.207 31.3638 205.89 33.0333C201.85 33.7335 197.057 35.3491 191.779 37.7726C187.794 39.6037 183.432 41.9734 179.554 44.343C176.861 46.0126 173.145 48.4899 171.045 50.5903C165.336 56.3529 162.643 62.0616 162.805 68.1472C162.859 70.0322 163.236 71.971 163.882 73.8021L158.766 78.9184C154.134 83.6038 151.657 89.4741 151.657 95.9906C151.657 100.461 152.842 105.038 155.265 109.885C156.396 112.201 157.85 114.517 159.358 116.779C158.838 116.233 158.308 115.686 157.77 115.136C157.242 114.598 156.712 114.05 156.181 113.494L154.619 111.824C146.594 103.477 136.577 93.0824 126.829 86.5659C120.474 82.3113 114.496 79.8878 108.68 79.1877C100.171 78.2183 92.1464 81.0188 86.1146 87.0506C80.5674 92.5977 77.5515 99.6528 77.4976 107.408C77.4438 113.224 78.9517 119.149 82.1831 125.557C86.9224 134.982 94.6776 144.245 102.217 152.862L105.341 156.417C106.12 157.282 106.874 158.144 107.603 159.002C108.238 159.734 108.867 160.452 109.488 161.156L109.057 160.887L108.626 160.617C106.58 159.325 104.533 157.979 102.11 156.363C97.9089 153.562 93.6005 150.708 89.7229 148.554C87.0301 147.1 82.9909 144.999 78.6825 143.976C71.2504 142.253 64.0876 144.084 59.1329 149.038C54.6628 153.509 52.0239 159.271 51.3238 166.165C50.9468 169.935 51.1622 173.704 51.3776 176.613V177.851C51.5931 181.136 51.4315 182.698 51.3238 183.398C49.215 185.41 47.3365 187.65 45.7228 190.077L44.6995 191.315C42.8684 193.577 39.7448 197.455 37.2675 201.117C35.5979 203.54 34.467 205.641 33.6591 207.472C32.9051 209.195 32.5282 210.811 32.3666 212.373C32.0435 216.035 33.2283 219.482 35.7595 222.013ZM90.3153 174.081C91.2632 174.695 92.308 175.455 93.3851 176.236C94.5699 177.108 95.8086 178.002 96.9934 178.767C102.918 182.591 110.673 187.222 117.889 189.43C126.776 192.123 133.885 190.938 139.055 185.768C143.04 181.783 143.255 177.043 142.717 173.758C142.178 170.365 140.509 166.595 137.708 162.233C133.669 155.986 127.314 148.715 121.659 142.36C121.574 142.283 121.501 142.192 121.444 142.091L118.482 138.698C110.619 129.704 104.749 122.434 101.463 115.917C99.8478 112.686 99.0399 109.885 99.0399 107.623C99.0399 106.6 99.2553 105.685 99.5785 104.823C99.9016 103.961 100.494 103.153 101.356 102.292L101.787 101.861C102.864 100.945 104.21 100.461 105.61 100.568C105.718 100.568 106.041 100.568 106.203 100.622C108.465 100.892 111.373 102.184 114.873 104.5C122.144 109.347 130.115 117.479 139.109 126.796L140.94 128.681L141.198 128.95C148.829 136.899 157.069 145.489 164.421 150.87C169.106 154.37 173.253 156.417 176.969 157.225C180.577 157.979 185.748 157.925 190.218 153.455C193.234 150.439 195.118 147.046 195.872 143.276C196.519 139.991 196.249 136.436 195.118 132.72C193.126 126.311 188.71 120.118 184.67 114.786L182.785 112.309L182.032 111.313C178.773 106.988 176.145 103.504 174.546 100.299C174.33 99.8144 174.115 99.3835 173.953 99.0604C173.541 98.0796 173.428 96.9987 173.629 95.9539C173.831 94.9092 174.337 93.9475 175.084 93.1901L181.708 86.5659C183.486 84.7887 186.232 84.4655 188.386 85.8119C189.948 86.7813 191.402 87.266 192.857 87.3737C195.872 87.5353 199.05 85.8658 202.658 82.3113C203.105 81.8589 203.552 81.2234 204.005 80.5879L204.274 80.2109C207.491 75.4092 210.336 70.3679 212.783 65.1313C214.937 60.4997 216.391 56.5144 217.038 53.2831C217.415 51.3981 217.522 49.7825 217.415 48.4361C217.253 46.982 216.768 45.851 215.961 45.0432C214.453 43.5352 211.706 43.1044 207.936 43.7506C204.759 44.343 200.827 45.6356 196.357 47.6821C192.749 49.3516 188.817 51.452 185.317 53.6062C181.708 55.8143 179.554 57.4838 178.746 58.2917C175.246 61.7923 173.576 64.9698 173.684 67.878C173.684 69.3321 174.169 70.7323 175.084 72.2403C176.323 74.3407 176 77.0334 174.276 78.8107L166.521 86.5659C163.936 89.151 162.536 92.4362 162.536 95.9906C162.536 98.7373 163.344 101.699 165.013 105.038C167.184 109.379 170.856 114.237 173.845 118.185L174.007 118.395L176.107 121.141C180.416 126.85 183.539 131.535 184.886 135.844C185.532 137.837 185.694 139.56 185.371 141.068C185.155 141.93 184.94 142.63 184.563 143.276C184.509 143.384 184.385 143.572 184.267 143.761C184.159 143.917 184.06 144.079 183.97 144.245C182.57 146.184 179.985 146.992 177.723 146.13C175.784 145.43 173.522 144.084 170.937 142.145C164.313 137.19 156.665 129.273 148.587 120.872L147.025 119.202C139.378 111.232 129.845 101.322 121.013 95.4521C116.058 92.113 111.642 90.2819 107.549 89.7972C102.325 89.151 97.5858 90.8205 93.8698 94.5365C90.2614 98.1449 88.4303 102.453 88.3765 107.408C88.3765 111.447 89.5075 115.756 91.931 120.603C96.0779 128.896 103.672 137.89 110.457 145.646L113.527 149.146L114.028 149.717C120.06 156.584 125.257 162.492 128.714 167.888C129.738 169.504 130.599 171.012 131.192 172.304C131.946 173.974 131.784 175.966 130.761 177.474C129.738 179.036 128.014 179.898 126.129 179.844C124.729 179.844 123.06 179.467 121.175 178.928C116.543 177.528 110.888 174.62 102.918 169.504L100.898 168.184C99.4977 167.272 98.0705 166.33 96.6164 165.357L94.4406 163.93C90.8862 161.587 87.5202 159.373 84.6066 157.763C82.5062 156.578 79.3826 154.963 76.4205 154.262C73.7277 153.616 69.904 153.509 66.9419 156.417C64.2492 159.11 62.6873 162.61 62.2565 167.026C61.9657 169.611 62.1057 172.444 62.2134 174.706L62.2565 175.535V176.99C62.6335 182.267 62.3642 187.346 60.8024 188.892C59.2406 190.437 56.7094 193.254 54.986 195.731C54.986 195.785 54.8783 195.893 54.8244 195.947C54.8244 195.947 54.3936 196.485 54.3936 196.539L53.5319 197.616C51.5931 199.986 48.6849 203.648 46.4768 206.933C45.2381 208.764 44.3764 210.272 43.8917 211.457C43.6224 212.104 43.4609 212.696 43.407 213.127C43.407 213.611 43.407 213.988 43.6763 214.204C43.784 214.312 44.1071 214.635 45.1304 214.473C45.7766 214.365 46.5845 214.096 47.5 213.665C49.2234 212.857 51.3776 211.619 53.9627 209.949C58.5404 206.88 63.172 203.217 64.4646 201.925C66.0264 200.363 67.1035 199.07 67.8036 197.886C67.9113 197.67 68.0729 197.455 68.2345 197.239C72.7153 191.644 72.9038 184.508 73.0276 179.715C73.0599 178.46 73.0869 177.367 73.1892 176.505C73.3777 174.862 73.4692 173.92 73.5285 173.263C73.6175 172.136 73.8049 171.018 74.0886 169.924C74.8803 167.231 78.0308 166.132 80.5082 167.436C80.8026 167.586 81.0719 167.734 81.316 167.877C82.8617 168.804 84.4827 169.972 86.2276 171.222C87.5202 172.148 88.872 173.123 90.3153 174.081Z" fill="black"/>
</svg>
