<svg width="842" height="297" viewBox="0 0 842 297" fill="none" xmlns="http://www.w3.org/2000/svg">
<path d="M170.449 91.1677C170.799 91.5302 171.218 91.8192 171.682 92.018C172.145 92.2168 172.643 92.3213 173.147 92.3254C173.651 92.3295 174.151 92.2332 174.618 92.0421C175.084 91.851 175.508 91.5689 175.865 91.2122C176.221 90.8555 176.503 90.4315 176.693 89.9648C176.884 89.498 176.98 88.998 176.975 88.4939C176.971 87.9897 176.866 87.4916 176.666 87.0284C176.467 86.5653 176.178 86.1465 175.815 85.7964C175.095 85.1257 174.143 84.7606 173.16 84.7779C172.176 84.7953 171.237 85.1938 170.542 85.8894C169.846 86.5851 169.448 87.5236 169.43 88.5072C169.413 89.4909 169.778 90.4429 170.449 91.1626M181.986 103.115C182.334 103.488 182.753 103.787 183.219 103.995C183.684 104.202 184.187 104.314 184.697 104.323C185.207 104.332 185.713 104.238 186.186 104.047C186.659 103.856 187.088 103.572 187.449 103.212C187.809 102.851 188.094 102.422 188.285 101.949C188.475 101.476 188.569 100.97 188.56 100.46C188.551 99.95 188.44 99.4472 188.232 98.9815C188.025 98.5157 187.725 98.0966 187.352 97.749C186.633 97.0783 185.681 96.7131 184.697 96.7305C183.713 96.7479 182.775 97.1463 182.079 97.842C181.384 98.5376 180.985 99.4762 180.968 100.46C180.95 101.443 181.315 102.395 181.986 103.115Z" fill="black"/>
<path fill-rule="evenodd" clip-rule="evenodd" d="M33.6153 235.465C35.7416 237.591 38.8297 238.553 41.9178 238.553C42.6266 238.553 43.386 238.451 44.1453 238.35C45.6135 238.097 47.1828 237.591 48.9041 236.831C51.0303 235.87 53.5616 234.452 56.3966 232.528C60.801 229.643 65.8128 225.745 67.8378 223.72C69.8122 221.745 71.2297 219.973 72.2928 218.252C77.4566 211.62 78.8235 204.431 79.026 198.711C79.1272 198.761 79.2791 198.863 79.2791 198.863C80.165 199.445 81.1522 200.164 82.1647 200.898C83.3443 201.748 84.5643 202.634 85.7085 203.368C91.8341 207.317 99.8835 212.126 107.832 214.556C119.678 218.151 130.36 216.075 137.852 208.583C143.117 203.267 145.345 196.129 144.079 188.434C143.32 183.827 141.244 179.018 137.852 173.753C133.6 167.222 127.373 160.135 121.652 153.655L118.868 150.465C115.223 146.263 112.084 142.568 109.553 139.226C113.856 143.125 118.564 147.934 123.373 152.946L125.398 155.021C132.638 162.565 140.839 171.07 148.433 176.74C154.052 180.891 159.216 183.422 164.228 184.485C172.429 186.156 180.124 183.928 185.895 178.157C190.198 173.905 192.882 168.893 193.995 163.375C194.907 158.616 194.603 153.604 192.983 148.491C190.603 140.897 185.845 134.215 181.592 128.545L179.517 125.811L178.17 123.988C176.722 122.039 175.411 120.277 174.403 118.723L175.365 117.761C177.087 118.42 178.909 118.774 180.681 118.875C186.604 119.179 192.072 116.648 197.59 111.13C198.4 110.32 199.21 109.256 200.273 107.738C201.032 106.624 201.994 105.206 202.956 103.586C204.525 100.954 206.905 96.8533 209.082 92.1451C211.461 87.0826 213.081 82.577 213.84 78.7295C214.397 75.8945 214.549 73.3633 214.296 71.0345C213.891 67.3895 212.423 64.2001 210.043 61.8208C207.36 59.1376 202.298 56.252 193.54 57.8214C189.743 58.4795 185.237 59.9983 180.276 62.2764C176.53 63.9976 172.429 66.2251 168.784 68.4526C166.253 70.022 162.76 72.3508 160.785 74.3251C155.419 79.742 152.888 85.1083 153.04 90.8289C153.09 92.6008 153.445 94.4233 154.052 96.1445L149.243 100.954C144.889 105.358 142.56 110.876 142.56 117.002C142.56 121.204 143.674 125.507 145.952 130.063C147.015 132.24 148.382 134.417 149.8 136.543C149.31 136.03 148.813 135.516 148.306 134.999C147.81 134.493 147.312 133.978 146.813 133.455L145.345 131.886C137.802 124.039 128.385 114.268 119.222 108.143C113.248 104.143 107.629 101.865 102.162 101.207C94.1628 100.296 86.6197 102.928 80.9497 108.598C75.7353 113.813 72.9003 120.445 72.8497 127.735C72.7991 133.202 74.2166 138.771 77.2541 144.795C81.7091 153.655 88.9991 162.362 96.0866 170.462L99.0228 173.803C99.7552 174.617 100.464 175.427 101.149 176.233C101.746 176.922 102.337 177.597 102.921 178.258L102.516 178.005L102.111 177.752C100.187 176.537 98.2635 175.271 95.9853 173.753C92.0366 171.12 87.9866 168.437 84.3416 166.412C81.8103 165.045 78.0135 163.071 73.9635 162.109C66.9772 160.489 60.2441 162.21 55.5866 166.868C51.3847 171.07 48.9041 176.486 48.246 182.966C47.8916 186.51 48.0941 190.054 48.2966 192.788V193.952C48.4991 197.04 48.3472 198.508 48.246 199.166C46.2637 201.057 44.4979 203.163 42.981 205.444L42.0191 206.608C40.2978 208.735 37.3616 212.38 35.0328 215.822C33.4635 218.1 32.4003 220.075 31.641 221.796C30.9322 223.416 30.5778 224.935 30.426 226.403C30.1222 229.845 31.236 233.085 33.6153 235.465ZM84.8985 190.408C85.7895 190.985 86.7716 191.699 87.7841 192.433C88.8978 193.253 90.0622 194.094 91.176 194.813C96.7447 198.407 104.035 202.761 110.818 204.836C119.172 207.368 125.854 206.254 130.714 201.394C134.46 197.648 134.663 193.193 134.157 190.105C133.65 186.915 132.081 183.371 129.448 179.271C125.652 173.398 119.678 166.564 114.362 160.59C114.282 160.517 114.213 160.432 114.16 160.337L111.375 157.148C103.984 148.693 98.466 141.859 95.3778 135.733C93.8591 132.696 93.0997 130.063 93.0997 127.937C93.0997 126.975 93.3022 126.115 93.606 125.305C93.9097 124.495 94.4666 123.735 95.2766 122.925L95.6816 122.52C96.6941 121.66 97.9597 121.204 99.276 121.305C99.3772 121.305 99.681 121.305 99.8328 121.356C101.959 121.609 104.693 122.824 107.983 125.001C114.818 129.557 122.31 137.201 130.765 145.96L132.486 147.731L132.729 147.985C139.903 155.457 147.648 163.531 154.558 168.589C158.963 171.88 162.861 173.803 166.354 174.563C169.746 175.271 174.606 175.221 178.808 171.019C181.643 168.184 183.415 164.995 184.123 161.451C184.731 158.363 184.478 155.021 183.415 151.528C181.542 145.504 177.39 139.682 173.593 134.67L171.822 132.341L171.113 131.405C168.05 127.34 165.58 124.064 164.076 121.052C163.873 120.596 163.671 120.191 163.519 119.888C163.131 118.966 163.025 117.95 163.215 116.968C163.404 115.985 163.88 115.081 164.582 114.37L170.809 108.143C172.48 106.472 175.062 106.168 177.087 107.434C178.555 108.345 179.922 108.801 181.288 108.902C184.123 109.054 187.11 107.485 190.502 104.143C190.922 103.718 191.343 103.121 191.768 102.523L192.021 102.169C195.046 97.6552 197.72 92.9163 200.02 87.9939C202.045 83.6401 203.412 79.8939 204.019 76.8564C204.373 75.0845 204.475 73.5658 204.373 72.3001C204.222 70.9333 203.766 69.8701 203.007 69.1108C201.589 67.6933 199.007 67.2883 195.463 67.8958C192.477 68.4526 188.781 69.6676 184.579 71.5914C181.187 73.1608 177.492 75.1351 174.201 77.1601C170.809 79.2358 168.784 80.8051 168.025 81.5645C164.734 84.8551 163.165 87.842 163.266 90.5758C163.266 91.9426 163.722 93.2589 164.582 94.6764C165.747 96.6508 165.443 99.182 163.823 100.853L156.533 108.143C154.103 110.573 152.787 113.661 152.787 117.002C152.787 119.584 153.546 122.368 155.115 125.507C157.156 129.587 160.608 134.154 163.418 137.865L163.57 138.062L165.544 140.644C169.594 146.01 172.53 150.415 173.796 154.465C174.403 156.338 174.555 157.958 174.252 159.375C174.049 160.185 173.847 160.843 173.492 161.451C173.442 161.552 173.325 161.729 173.214 161.906C173.113 162.053 173.02 162.205 172.935 162.362C171.619 164.185 169.189 164.944 167.063 164.134C165.24 163.476 163.114 162.21 160.684 160.388C154.457 155.73 147.268 148.288 139.675 140.391L138.207 138.821C131.018 131.329 122.057 122.014 113.755 116.496C109.097 113.357 104.946 111.636 101.098 111.18C96.1878 110.573 91.7328 112.142 88.2397 115.635C84.8478 119.027 83.1266 123.077 83.076 127.735C83.076 131.531 84.1391 135.581 86.4172 140.138C90.3153 147.934 97.4535 156.388 103.832 163.678L106.718 166.969L107.189 167.506C112.859 173.96 117.744 179.514 120.994 184.586C121.956 186.105 122.766 187.523 123.323 188.738C124.032 190.307 123.88 192.18 122.918 193.598C121.956 195.066 120.336 195.876 118.564 195.825C117.248 195.825 115.678 195.471 113.907 194.965C109.553 193.648 104.237 190.915 96.7447 186.105L94.8463 184.865C93.53 184.008 92.1885 183.122 90.8216 182.207L88.7763 180.865C85.4351 178.663 82.271 176.583 79.5322 175.069C77.5578 173.955 74.6216 172.436 71.8372 171.778C69.306 171.171 65.7116 171.07 62.9272 173.803C60.396 176.335 58.9278 179.625 58.5228 183.776C58.2495 186.206 58.3811 188.869 58.4823 190.996L58.5228 191.775V193.142C58.8772 198.103 58.6241 202.877 57.156 204.33C55.6878 205.783 53.3085 208.431 51.6885 210.76C51.6885 210.81 51.5872 210.911 51.5366 210.962C51.5366 210.962 51.1316 211.468 51.1316 211.519L50.3216 212.531C48.4991 214.759 45.7653 218.201 43.6897 221.29C42.5253 223.011 41.7153 224.428 41.2597 225.542C41.0066 226.15 40.8547 226.706 40.8041 227.111C40.8041 227.567 40.8041 227.921 41.0572 228.124C41.1585 228.225 41.4622 228.529 42.4241 228.377C43.0316 228.276 43.791 228.023 44.6516 227.618C46.2716 226.858 48.2966 225.694 50.7266 224.125C55.0297 221.239 59.3835 217.796 60.5985 216.581C62.0666 215.113 63.0791 213.898 63.7372 212.785C63.8385 212.582 63.9903 212.38 64.1422 212.177C68.3542 206.917 68.5314 200.209 68.6478 195.704C68.6782 194.524 68.7035 193.496 68.7997 192.686C68.9769 191.142 69.063 190.256 69.1186 189.639C69.2023 188.579 69.3785 187.529 69.6451 186.5C70.3893 183.969 73.3509 182.936 75.6796 184.161C75.9564 184.303 76.2095 184.441 76.439 184.576C77.892 185.447 79.4158 186.546 81.056 187.72C82.271 188.591 83.5417 189.507 84.8985 190.408Z" fill="black"/>
<path d="M292.28 209.8C286.093 209.8 279.107 209.267 271.32 208.2C267.053 207.667 264.12 206.547 262.52 204.84C260.92 203.133 260.227 200.36 260.44 196.52C261.187 185.96 262.947 172.947 265.72 157.48C268.493 141.907 271.853 126.92 275.8 112.52C276.547 109.853 278.04 107.987 280.28 106.92C282.52 105.853 285.453 105.32 289.08 105.32C295.587 105.32 298.84 107.133 298.84 110.76C298.84 112.253 298.52 113.96 297.88 115.88C295.107 124.413 292.333 135.88 289.56 150.28C286.787 164.573 284.813 178.227 283.64 191.24C286.84 191.56 290.467 191.72 294.52 191.72C313.187 191.72 327.107 186.067 336.28 174.76C345.56 163.453 350.2 148.36 350.2 129.48C350.2 116.787 346.573 106.973 339.32 100.04C332.067 93.1067 321.827 89.64 308.6 89.64C300.067 89.64 291.587 90.9733 283.16 93.64C274.84 96.3067 267.32 99.8267 260.6 104.2C259.213 105.16 257.72 105.64 256.12 105.64C254.307 105.64 252.867 104.893 251.8 103.4C250.733 101.8 250.2 99.88 250.2 97.64C250.2 95.08 250.627 93 251.48 91.4C252.333 89.6933 253.773 88.1467 255.8 86.76C263.16 81.7467 271.8 77.96 281.72 75.4C291.64 72.7333 301.187 71.4 310.36 71.4C323.373 71.4 334.627 73.6933 344.12 78.28C353.613 82.76 360.92 89.3733 366.04 98.12C371.16 106.867 373.72 117.427 373.72 129.8C373.72 145.907 370.52 159.987 364.12 172.04C357.72 183.987 348.387 193.267 336.12 199.88C323.853 206.493 309.24 209.8 292.28 209.8ZM466.03 159.88C467.417 159.88 468.483 160.573 469.23 161.96C469.977 163.347 470.35 165.107 470.35 167.24C470.35 172.36 468.803 175.4 465.71 176.36C459.31 178.6 452.27 179.88 444.59 180.2C442.563 189.16 438.563 196.36 432.59 201.8C426.617 207.133 419.843 209.8 412.27 209.8C405.87 209.8 400.377 208.253 395.79 205.16C391.31 202.067 387.897 197.96 385.55 192.84C383.203 187.72 382.03 182.173 382.03 176.2C382.03 168.093 383.577 160.893 386.67 154.6C389.763 148.2 394.03 143.24 399.47 139.72C404.91 136.093 410.937 134.28 417.55 134.28C425.657 134.28 432.163 137.107 437.07 142.76C442.083 148.307 445.017 155.187 445.87 163.4C450.883 163.08 456.857 162.013 463.79 160.2C464.643 159.987 465.39 159.88 466.03 159.88ZM413.55 192.84C416.963 192.84 419.897 191.453 422.35 188.68C424.91 185.907 426.617 181.907 427.47 176.68C424.163 174.44 421.603 171.507 419.79 167.88C418.083 164.253 417.23 160.413 417.23 156.36C417.23 154.653 417.39 152.947 417.71 151.24H416.91C412.643 151.24 409.07 153.32 406.19 157.48C403.417 161.533 402.03 167.293 402.03 174.76C402.03 180.627 403.15 185.107 405.39 188.2C407.737 191.293 410.457 192.84 413.55 192.84ZM487.178 209.8C476.724 209.8 468.564 206.867 462.698 201C456.938 195.027 454.058 187.187 454.058 177.48C454.058 168.84 455.764 161.267 459.178 154.76C462.591 148.253 467.018 143.24 472.457 139.72C477.898 136.2 483.604 134.44 489.578 134.44C495.444 134.44 499.978 136.2 503.178 139.72C506.484 143.133 508.138 147.56 508.138 153C508.138 157.48 507.124 161.267 505.098 164.36C503.178 167.453 500.618 169 497.418 169C495.391 169 493.738 168.52 492.458 167.56C491.284 166.6 490.698 165.267 490.698 163.56C490.698 162.813 490.804 161.96 491.018 161C491.231 160.04 491.391 159.347 491.498 158.92C492.031 157.32 492.298 155.827 492.298 154.44C492.298 153.053 491.924 151.987 491.177 151.24C490.538 150.493 489.578 150.12 488.298 150.12C485.844 150.12 483.551 151.24 481.418 153.48C479.284 155.613 477.578 158.547 476.298 162.28C475.018 166.013 474.378 170.12 474.378 174.6C474.378 186.973 479.764 193.16 490.538 193.16C494.911 193.16 499.604 191.72 504.618 188.84C509.738 185.853 514.751 181.427 519.658 175.56C520.938 174.067 522.378 173.32 523.978 173.32C525.364 173.32 526.431 173.96 527.178 175.24C528.031 176.52 528.458 178.28 528.458 180.52C528.458 184.573 527.444 187.88 525.418 190.44C520.404 196.627 514.378 201.427 507.338 204.84C500.404 208.147 493.684 209.8 487.178 209.8ZM608.004 173.32C609.39 173.32 610.457 173.96 611.204 175.24C612.057 176.52 612.484 178.28 612.484 180.52C612.484 184.787 611.47 188.093 609.444 190.44C604.644 196.307 599.79 201 594.884 204.52C589.977 208.04 584.164 209.8 577.444 209.8C569.23 209.8 562.617 207.453 557.604 202.76C552.59 198.067 550.084 191.827 550.084 184.04C550.084 179.88 552.217 176.893 556.484 175.08C561.177 173.053 564.537 170.92 566.564 168.68C568.59 166.333 569.604 163.507 569.604 160.2C569.604 158.28 569.177 156.84 568.324 155.88C567.577 154.92 566.617 154.44 565.444 154.44C562.564 154.44 559.364 156.52 555.844 160.68C552.43 164.84 549.23 170.227 546.244 176.84C543.257 183.347 540.91 190.067 539.204 197C538.03 202.013 536.644 205.427 535.044 207.24C533.55 208.947 531.15 209.8 527.844 209.8C524.537 209.8 522.084 208.627 520.484 206.28C518.99 203.827 517.977 200.093 517.444 195.08C516.91 190.067 516.644 182.707 516.644 173C516.644 156.573 518.297 139.453 521.604 121.64C525.017 103.827 529.977 88.8933 536.484 76.84C543.097 64.68 550.99 58.6 560.164 58.6C565.07 58.6 569.017 60.7333 572.004 65C575.097 69.16 576.644 74.6 576.644 81.32C576.644 92.0933 573.497 103.293 567.204 114.92C560.91 126.44 550.67 139.933 536.484 155.4C536.164 160.947 536.004 166.653 536.004 172.52C541.124 159.187 546.99 149.533 553.604 143.56C560.217 137.48 566.404 134.44 572.164 134.44C577.497 134.44 581.764 136.253 584.964 139.88C588.27 143.507 589.924 147.987 589.924 153.32C589.924 159.187 588.43 164.573 585.444 169.48C582.457 174.387 577.337 178.76 570.084 182.6C570.51 185.48 571.79 187.827 573.924 189.64C576.164 191.347 578.83 192.2 581.924 192.2C585.23 192.2 588.43 190.92 591.524 188.36C594.617 185.8 598.67 181.533 603.684 175.56C604.964 174.067 606.404 173.32 608.004 173.32ZM556.804 74.44C554.884 74.44 552.75 77.2133 550.404 82.76C548.057 88.2 545.764 95.6133 543.524 105C541.39 114.28 539.63 124.413 538.244 135.4C544.857 127.613 550.297 119.133 554.564 109.96C558.937 100.787 561.124 92.4667 561.124 85C561.124 81.5867 560.75 78.9733 560.004 77.16C559.257 75.3467 558.19 74.44 556.804 74.44ZM629.346 213.32C623.8 213.32 619.533 212.04 616.546 209.48C613.666 206.92 612.226 204.04 612.226 200.84C612.226 198.067 613.24 195.667 615.266 193.64C617.293 191.613 620.28 190.6 624.226 190.6C625.613 190.6 627.213 190.76 629.026 191.08C630.946 191.293 632.386 191.453 633.346 191.56C633.24 188.787 632.6 186.173 631.426 183.72C630.36 181.267 628.973 178.92 627.266 176.68C625.56 174.333 623.96 172.307 622.466 170.6C619.16 176.893 615.853 182.12 612.546 186.28C609.346 190.44 605.826 194.387 601.986 198.12C600.066 200.04 598.04 201 595.906 201C594.2 201 592.813 200.413 591.746 199.24C590.68 197.96 590.146 196.413 590.146 194.6C590.146 192.467 590.893 190.493 592.386 188.68L594.466 186.12C600.333 178.867 604.76 172.893 607.746 168.2C609.56 165.107 611.693 161 614.146 155.88C616.6 150.653 619 145.267 621.346 139.72C623.373 135.027 627.586 132.68 633.986 132.68C636.973 132.68 639.053 132.947 640.226 133.48C641.4 134.013 641.986 134.867 641.986 136.04C641.986 136.68 641.773 137.693 641.346 139.08C640.92 140.467 640.333 141.853 639.586 143.24C637.666 147.08 636.706 150.333 636.706 153C636.706 154.6 637.24 156.36 638.306 158.28C639.48 160.2 641.24 162.6 643.586 165.48C647 169.96 649.56 173.8 651.266 177C653.08 180.093 653.986 183.507 653.986 187.24C653.986 188.307 653.88 189.8 653.666 191.72C658.893 189.693 665.026 184.307 672.066 175.56C673.346 174.067 674.786 173.32 676.386 173.32C677.773 173.32 678.84 173.96 679.586 175.24C680.44 176.52 680.866 178.28 680.866 180.52C680.866 184.573 679.853 187.88 677.826 190.44C672.493 197.053 667.373 201.587 662.466 204.04C657.666 206.387 651.693 207.667 644.546 207.88C640.28 211.507 635.213 213.32 629.346 213.32ZM708.188 209.8C700.828 209.8 694.161 207.987 688.188 204.36C682.321 200.733 677.681 195.507 674.268 188.68C670.854 181.747 669.148 173.587 669.148 164.2C669.148 147.987 672.614 133 679.548 119.24C686.481 105.373 696.721 94.28 710.268 85.96C723.814 77.5333 740.081 73.32 759.068 73.32C763.974 73.32 769.201 73.6933 774.748 74.44C780.401 75.1867 785.521 76.3067 790.108 77.8C793.094 78.6533 794.588 80.7867 794.588 84.2C794.588 86.9733 793.521 89.5867 791.388 92.04C789.361 94.4933 786.961 95.72 784.188 95.72C783.334 95.72 782.694 95.6667 782.268 95.56C776.721 94.28 771.974 93.3733 768.028 92.84C764.081 92.2 759.921 91.88 755.548 91.88C742.001 91.88 730.481 95.1867 720.988 101.8C711.494 108.307 704.401 116.947 699.708 127.72C695.014 138.493 692.668 150.12 692.668 162.6C692.668 171.667 694.428 178.707 697.948 183.72C701.574 188.627 706.268 191.08 712.028 191.08C718.534 191.08 724.241 188.413 729.148 183.08C734.054 177.747 738.534 169.107 742.588 157.16C746.641 145.213 750.641 129 754.588 108.52C755.228 105.533 756.508 103.507 758.428 102.44C760.348 101.373 762.908 100.84 766.108 100.84C773.681 100.84 777.468 103.293 777.468 108.2C777.468 109.053 777.308 110.12 776.988 111.4C774.214 121.747 771.654 133.213 769.308 145.8C767.068 158.28 765.948 167.773 765.948 174.28C765.948 180.04 766.801 184.253 768.508 186.92C770.214 189.48 772.828 190.76 776.348 190.76C779.761 190.76 783.014 189.64 786.108 187.4C789.201 185.053 793.094 181.107 797.788 175.56C799.068 174.067 800.508 173.32 802.108 173.32C803.494 173.32 804.561 173.96 805.308 175.24C806.161 176.52 806.588 178.28 806.588 180.52C806.588 184.68 805.574 187.987 803.548 190.44C798.321 196.733 793.201 201.533 788.188 204.84C783.174 208.147 777.041 209.8 769.788 209.8C762.321 209.8 756.294 207.667 751.708 203.4C747.121 199.027 744.241 192.893 743.068 185C735.174 201.533 723.548 209.8 708.188 209.8Z" fill="black"/>
</svg>
